<svg xmlns="http://www.w3.org/2000/svg" viewBox="0 0 64 64">
  <defs>
    <linearGradient id="g" x1="0" y1="0" x2="0" y2="1">
      <stop offset="0" stop-color="#E9C77D"/>
      <stop offset="0.5" stop-color="#C99A4B"/>
      <stop offset="1" stop-color="#9A6E2E"/>
    </linearGradient>
  </defs>
  <rect width="64" height="64" rx="14" fill="#0B0A08"/>
  <!-- stopper -->
  <rect x="27" y="10" width="10" height="6" rx="1.5" fill="url(#g)"/>
  <rect x="29.5" y="15" width="5" height="5" fill="url(#g)"/>
  <!-- bottle body -->
  <path d="M22 20 h20 a4 4 0 0 1 4 4 v22 a8 8 0 0 1 -8 8 H26 a8 8 0 0 1 -8 -8 V24 a4 4 0 0 1 4 -4 z" fill="url(#g)"/>
  <!-- monogram F -->
  <path d="M28 28 h9 v3 h-6 v3.5 h5 v3 h-5 V46 h-3 z" fill="#0B0A08"/>
  <!-- sparkle -->
  <path d="M48 22 l1.2 3 3 1.2 -3 1.2 -1.2 3 -1.2 -3 -3 -1.2 3 -1.2 z" fill="#E9C77D"/>
</svg>
